<svg width="0" height="0" class="hidden">
  <symbol fill="currentColor" xmlns="http://www.w3.org/2000/svg" viewBox="0 0 24 24" id="arrow-right-svgrepo-com">
    <path fill-rule="evenodd" clip-rule="evenodd" d="M12.2929 5.29289C12.6834 4.90237 13.3166 4.90237 13.7071 5.29289L19.7071 11.2929C20.0976 11.6834 20.0976 12.3166 19.7071 12.7071L13.7071 18.7071C13.3166 19.0976 12.6834 19.0976 12.2929 18.7071C11.9024 18.3166 11.9024 17.6834 12.2929 17.2929L16.5858 13H5C4.44772 13 4 12.5523 4 12C4 11.4477 4.44772 11 5 11H16.5858L12.2929 6.70711C11.9024 6.31658 11.9024 5.68342 12.2929 5.29289Z" fill="#0F1729"></path>
  </symbol>
  <symbol fill="currentColor" xmlns="http://www.w3.org/2000/svg" viewBox="0 0 24 24" id="arrow-square-left-svgrepo-com">
    <path d="M9 22H15C20 22 22 20 22 15V9C22 4 20 2 15 2H9C4 2 2 4 2 9V15C2 20 4 22 9 22Z" stroke="#292D32" stroke-width="1.5" stroke-linecap="round" stroke-linejoin="round"></path>
    <path opacity="0.4" d="M13.2602 15.5302L9.74023 12.0002L13.2602 8.47021" stroke="#292D32" stroke-width="1.5" stroke-linecap="round" stroke-linejoin="round"></path>
  </symbol>
  <symbol fill="currentColor" xmlns="http://www.w3.org/2000/svg" viewBox="0 0 24 24" id="arrow-left-svgrepo-com">
    <path fill-rule="evenodd" clip-rule="evenodd" d="M11.7071 5.29289C12.0976 5.68342 12.0976 6.31658 11.7071 6.70711L7.41421 11H19C19.5523 11 20 11.4477 20 12C20 12.5523 19.5523 13 19 13H7.41421L11.7071 17.2929C12.0976 17.6834 12.0976 18.3166 11.7071 18.7071C11.3166 19.0976 10.6834 19.0976 10.2929 18.7071L4.29289 12.7071C3.90237 12.3166 3.90237 11.6834 4.29289 11.2929L10.2929 5.29289C10.6834 4.90237 11.3166 4.90237 11.7071 5.29289Z" fill="#0F1729"></path>
  </symbol>
  <symbol fill="currentColor" xmlns="http://www.w3.org/2000/svg" viewBox="0 0 24 24" id="arrow-square-right-svgrepo-com">
    <path d="M9 22H15C20 22 22 20 22 15V9C22 4 20 2 15 2H9C4 2 2 4 2 9V15C2 20 4 22 9 22Z" stroke="#292D32" stroke-width="1.5" stroke-linecap="round" stroke-linejoin="round"></path>
    <path opacity="0.4" d="M10.7402 15.5302L14.2602 12.0002L10.7402 8.47021" stroke="#292D32" stroke-width="1.5" stroke-linecap="round" stroke-linejoin="round"></path>
  </symbol>
</svg>