<svg width="0" height="0" class="hidden">
  <symbol fill="currentColor" version="1.1" id="button-circle-round" xmlns="http://www.w3.org/2000/svg" xmlns:xlink="http://www.w3.org/1999/xlink" xml:space="preserve" viewBox="0 0 32 32">
    <path d="M16,2C8.3,2,2,8.3,2,16s6.3,14,14,14s14-6.3,14-14S23.7,2,16,2z M22,21H10c-0.6,0-1-0.4-1-1s0.4-1,1-1h12c0.6,0,1,0.4,1,1
	S22.6,21,22,21z M22,17H10c-0.6,0-1-0.4-1-1s0.4-1,1-1h12c0.6,0,1,0.4,1,1S22.6,17,22,17z M22,13H10c-0.6,0-1-0.4-1-1s0.4-1,1-1h12
	c0.6,0,1,0.4,1,1S22.6,13,22,13z"></path>
  </symbol>
  <symbol fill="currentColor" version="1.1" id="button-circle-round-arrow" xmlns="http://www.w3.org/2000/svg" xmlns:xlink="http://www.w3.org/1999/xlink" xml:space="preserve" viewBox="0 0 32 32">
    <path d="M16,2C8.3,2,2,8.3,2,16s6.3,14,14,14s14-6.3,14-14S23.7,2,16,2z M18.9,16.7l-4.2,4.2c-0.2,0.2-0.5,0.3-0.7,0.3
	s-0.5-0.1-0.7-0.3c-0.4-0.4-0.4-1,0-1.4l3.5-3.5l-3.5-3.5c-0.4-0.4-0.4-1,0-1.4s1-0.4,1.4,0l4.2,4.2C19.3,15.7,19.3,16.3,18.9,16.7z
	"></path>
  </symbol>
  <symbol fill="currentColor" version="1.1" id="justify-full" xmlns="http://www.w3.org/2000/svg" xmlns:xlink="http://www.w3.org/1999/xlink" xml:space="preserve" viewBox="0 0 32 32">
    <g>
      <path d="M3,5h26c0.6,0,1-0.4,1-1s-0.4-1-1-1H3C2.4,3,2,3.4,2,4S2.4,5,3,5z"></path>
      <path d="M29,9H3c-0.6,0-1,0.4-1,1s0.4,1,1,1h26c0.6,0,1-0.4,1-1S29.6,9,29,9z"></path>
      <path d="M29,15H3c-0.6,0-1,0.4-1,1s0.4,1,1,1h26c0.6,0,1-0.4,1-1S29.6,15,29,15z"></path>
      <path d="M29,21H3c-0.6,0-1,0.4-1,1s0.4,1,1,1h26c0.6,0,1-0.4,1-1S29.6,21,29,21z"></path>
      <path d="M29,27H3c-0.6,0-1,0.4-1,1s0.4,1,1,1h26c0.6,0,1-0.4,1-1S29.6,27,29,27z"></path>
    </g>
  </symbol>
</svg>